# xmcd CD database file
#
# Track frame offsets:
#	150
#	17540
#	38014
#	63051
#	94892
#	110173
#	118282
#	149046
#	176951
#
# Disc length: 2877 seconds
#
# Revision: 0
# Processed by: cddbd v1.5.2PL0 Copyright (c) Steve Scherf et al.
# Submitted via: CDex 1.70beta2
#
DISCID=820b3b09
DTITLE=南博 - From me to me
DYEAR=2010
DGENRE=Jazz
TTITLE0=Barack Obama
TTITLE1=Sea and the ocean
TTITLE2=December, December
TTITLE3=Window in the sky
TTITLE4=SAKURA -cherry blossom-
TTITLE5=Angie Dickinson
TTITLE6=Tears
TTITLE7=Falling Falling Petals
TTITLE8=Praise Song
EXTD=YEAR: 2010
EXTT0=
EXTT1=
EXTT2=
EXTT3=
EXTT4=
EXTT5=
EXTT6=
EXTT7=
EXTT8=
PLAYORDER=
